PathFileType	4	(X/Y/Z)	C:/Users/CLatella/Desktop/xsens/test 26Settembre2016/Meri-002.trc	
DataRate	CameraRate	NumFrames	NumMarkers	Units	OrigDataRate	OrigDataStartFrame	OrigNumFrames	
240.00	240.00	4	64	mm	240.00	266	1060	
Frame#	Time	pHipOrigin			pRightASI			pLeftASI			pRightCSI			pLeftCSI			pRightIschialTub			pLeftIschialTub			pSacrum			pL5SpinalProcess			pL3SpinalProcess			pT12SpinalProcess			pPX			pIJ			pT4SpinalProcess			pT8SpinalProcess			pC7SpinalProcess			pTopOfHead			pRightAuricularis			pLeftAuricularis			pBackOfHead			pRightAcromion			pLeftAcromion			pRightArmLatEpicondyle			pRightArmMedEpicondyle			pLeftArmLatEpicondyle			pLeftArmMedEpicondyle			pRightUlnarStyloid			pRightRadialStyloid			pRightOlecranon			pLeftUlnarStyloid			pLeftRadialStyloid			pLeftOlecranon			pRightTopOfHand			pRightPinky			pRightBallHand			pLeftTopOfHand			pLeftPinky			pLeftBallHand			pRightGreaterTrochanter			pRightKneeLatEpicondyle			pRightKneeMedEpicondyle			pRightPatella			pLeftGreaterTrochanter			pLeftKneeLatEpicondyle			pLeftKneeMedEpicondyle			pLeftPatella			pRightLatMalleolus			pRightMedMalleolus			pRightTibialTub			pLeftLatMalleolus			pLeftMedMalleolus			pLeftTibialTub			pRightHeelFoot			pRightFirstMetatarsal			pRightFifthMetatarsal			pRightPivotFoot			pRightHeelCenter			pRightToe			pLeftHeelFoot			pLeftFirstMetatarsal			pLeftFifthMetatarsal			pLeftPivotFoot			pLeftHeelCenter			pLeftToe			
		X1	Y1	Z1	X2	Y2	Z2	X3	Y3	Z3	X4	Y4	Z4	X5	Y5	Z5	X6	Y6	Z6	X7	Y7	Z7	X8	Y8	Z8	X9	Y9	Z9	X10	Y10	Z10	X11	Y11	Z11	X12	Y12	Z12	X13	Y13	Z13	X14	Y14	Z14	X15	Y15	Z15	X16	Y16	Z16	X17	Y17	Z17	X18	Y18	Z18	X19	Y19	Z19	X20	Y20	Z20	X21	Y21	Z21	X22	Y22	Z22	X23	Y23	Z23	X24	Y24	Z24	X25	Y25	Z25	X26	Y26	Z26	X27	Y27	Z27	X28	Y28	Z28	X29	Y29	Z29	X30	Y30	Z30	X31	Y31	Z31	X32	Y32	Z32	X33	Y33	Z33	X34	Y34	Z34	X35	Y35	Z35	X36	Y36	Z36	X37	Y37	Z37	X38	Y38	Z38	X39	Y39	Z39	X40	Y40	Z40	X41	Y41	Z41	X42	Y42	Z42	X43	Y43	Z43	X44	Y44	Z44	X45	Y45	Z45	X46	Y46	Z46	X47	Y47	Z47	X48	Y48	Z48	X49	Y49	Z49	X50	Y50	Z50	X51	Y51	Z51	X52	Y52	Z52	X53	Y53	Z53	X54	Y54	Z54	X55	Y55	Z55	X56	Y56	Z56	X57	Y57	Z57	X58	Y58	Z58	X59	Y59	Z59	X60	Y60	Z60	X61	Y61	Z61	X62	Y62	Z62	X63	Y63	Z63	X64	Y64	Z64	

266	1.104	144.81961	3.44571	927.94412	221.57400	-109.91309	1000.40386	195.75616	128.24026	1004.39889	184.37034	-94.23262	1072.31429	163.04690	102.57223	1075.61018	97.87808	-50.58699	879.75415	87.24133	47.79047	881.40210	77.25377	-4.19477	950.96545	112.85942	-0.24969	1024.17426	123.54611	-1.99751	1128.64412	138.82707	-3.69540	1220.08023	292.63548	-3.79527	1269.46871	318.30351	-7.29092	1377.18453	182.37283	-8.28967	1387.77135	160.30032	-5.79278	1309.71857	195.40660	-8.28967	1435.31213	382.57345	-22.77163	1609.04572	304.52068	-80.74942	1544.67590	321.89903	48.48960	1539.53231	269.06484	-9.18855	1567.24778	229.51411	-180.62501	1396.81009	213.98346	168.19050	1390.66774	319.10252	-139.97564	1094.03723	309.86402	-80.10022	1101.27821	294.68293	141.92322	1080.90359	285.54432	81.69823	1084.54905	370.08901	-96.23013	874.26099	413.18532	-84.09525	888.79289	293.03499	-118.50239	1090.84121	333.13504	111.86066	856.18351	373.93422	90.98666	867.02001	269.86385	124.59480	1077.85739	519.90239	-111.16153	769.24181	440.05186	-106.66713	789.36674	403.44745	-87.09152	844.99744	469.41528	195.10697	776.03335	392.46114	169.63869	791.21444	362.79809	119.40127	828.71772	166.04317	-144.32023	901.22740	160.50008	-135.33143	520.25196	149.06432	-62.62200	516.45668	195.05703	-90.03785	520.65146	84.19512	129.93814	905.12255	86.79189	127.99057	523.99729	142.47253	79.95041	518.90364	143.52123	133.43379	524.19704	142.12297	-160.74976	95.63088	143.97067	-98.12777	90.58716	220.17574	-100.12528	482.99836	80.69948	181.67370	101.77323	88.58965	119.70090	94.78194	177.92837	119.00177	484.39662	104.17024	-124.89443	-0.24969	251.68649	-115.65594	0.24969	241.14962	-181.52389	1.39826	265.26957	-150.71227	0.99876	143.27154	-131.08671	4.29465	341.17502	-162.89709	0.74907	43.64563	149.91326	5.69291	188.96462	123.04673	3.59552	186.36785	189.71369	4.09490	206.64260	156.20543	3.64546	83.24631	151.41140	9.43824	283.44693	159.15176	1.74782 
267	1.108	144.47004	3.29589	927.94412	221.37425	-110.01296	1000.25405	195.50647	128.09045	1004.29901	184.32040	-94.38243	1072.26435	162.89709	102.42242	1075.61018	97.42864	-50.73680	879.85403	86.74195	47.64066	881.50197	76.90421	-4.39453	951.11526	112.65967	-0.39950	1024.27413	123.64598	-2.14733	1128.74400	139.22657	-3.79527	1220.13017	293.23474	-3.89515	1268.91939	319.35220	-7.44073	1376.48540	183.47146	-8.43949	1387.67147	161.04939	-5.94260	1309.71857	196.70498	-8.43949	1435.06244	383.87184	-22.92145	1608.69616	305.91894	-80.89923	1544.32634	323.24735	48.33979	1539.18274	270.41316	-9.33837	1566.84828	230.71262	-180.72488	1396.66027	215.08209	168.04068	1390.36811	319.70177	-140.27527	1093.73760	310.46328	-80.39985	1100.97859	295.23225	142.02309	1080.50409	286.14357	81.79811	1084.09961	370.38863	-96.62963	873.86149	413.48495	-84.44481	888.34345	293.63424	-118.80202	1090.54159	333.48460	112.21023	855.68413	374.28378	91.33623	866.47070	270.41316	124.69468	1077.45788	520.10214	-111.66091	768.74243	440.30155	-107.11657	788.91730	403.74708	-87.49102	844.54800	469.61503	195.60635	775.43409	392.71083	170.08813	790.71506	363.09771	119.80077	828.21834	165.64367	-144.47004	901.22740	160.25039	-135.38136	520.25196	148.86457	-62.67193	516.45668	194.85728	-90.08778	520.70140	83.74568	129.73839	905.12255	86.59214	127.89070	523.99729	142.32272	79.95041	518.95357	143.32147	133.43379	524.24698	142.12297	-160.74976	95.63088	144.02060	-98.12777	90.58716	219.97599	-100.12528	483.04830	80.74942	181.72364	101.77323	88.63959	119.70090	94.78194	177.77855	118.95183	484.44656	104.22018	-124.89443	-0.19975	251.73643	-115.70587	0.24969	241.14962	-181.57383	1.39826	265.26957	-150.71227	0.99876	143.27154	-131.08671	4.29465	341.22496	-162.89709	0.74907	43.64563	149.91326	5.69291	188.96462	122.99679	3.59552	186.41779	189.71369	4.09490	206.64260	156.20543	3.64546	83.24631	151.41140	9.48818	283.44693	159.15176	1.74782 
268	1.112	144.07054	3.14608	927.99406	221.12456	-110.16278	1000.20411	195.25678	127.94063	1004.19914	184.22053	-94.48231	1072.26435	162.79721	102.32254	1075.56025	96.92926	-50.93655	880.00384	86.24257	47.44091	881.65179	76.55464	-4.54434	951.26507	112.45992	-0.54932	1024.42394	123.74586	-2.29714	1128.84388	139.67601	-3.94509	1220.18010	293.83399	-4.04496	1268.37008	320.40090	-7.54061	1375.78628	184.57009	-8.58930	1387.57160	161.84840	-6.04247	1309.71857	197.95342	-8.58930	1434.86269	385.22016	-23.07126	1608.39653	307.31720	-81.04904	1543.92683	324.59567	48.18997	1538.83318	271.76149	-9.53812	1566.44878	231.91112	-180.82476	1396.56040	216.18072	167.94081	1390.01855	320.30102	-140.57490	1093.43798	311.01259	-80.69948	1100.62902	295.78156	142.12297	1080.10459	286.74282	81.89799	1083.65017	370.63832	-97.02914	873.46199	413.78458	-84.84432	887.89401	294.23349	-119.10164	1090.24196	333.83417	112.55979	855.23469	374.68328	91.68579	865.92138	271.01242	124.79455	1077.10832	520.30189	-112.16029	768.19311	440.50130	-107.61595	788.46786	403.99677	-87.94046	844.09856	469.81478	196.10572	774.88478	392.96052	170.53757	790.21568	363.44728	120.15034	827.71897	165.24417	-144.66979	901.27734	160.05064	-135.43130	520.30189	148.71476	-62.67193	516.50662	194.65753	-90.13772	520.75134	83.29624	129.48870	905.17249	86.39239	127.84076	524.04723	142.17290	79.95041	519.00351	143.12172	133.38385	524.29692	142.17290	-160.79970	95.68082	144.02060	-98.17771	90.58716	219.77624	-100.17522	483.09824	80.74942	181.72364	101.77323	88.68953	119.75083	94.78194	177.57880	118.95183	484.54643	104.22018	-124.89443	-0.19975	251.73643	-115.75581	0.29963	241.14962	-181.62376	1.39826	265.26957	-150.81214	0.99876	143.27154	-131.13665	4.34459	341.17502	-163.04690	0.74907	43.69557	149.91326	5.74285	189.01456	123.04673	3.59552	186.41779	189.76362	4.14484	206.69254	156.25536	3.64546	83.29624	151.41140	9.48818	283.49687	159.20169	1.74782 
269	1.117	143.67104	2.94633	928.04400	220.92481	-110.31259	1000.10424	194.95715	127.79082	1004.09926	184.12065	-94.63212	1072.26435	162.69734	102.17273	1075.56025	96.47982	-51.13630	880.15365	85.79313	47.24115	881.80160	76.20508	-4.69415	951.46482	112.21023	-0.69913	1024.57376	123.84573	-2.44695	1128.94375	140.07552	-4.09490	1220.23004	294.43324	-4.14484	1267.77082	321.44959	-7.69042	1375.13708	185.66872	-8.73911	1387.42178	162.59746	-6.19229	1309.66863	199.25181	-8.73911	1434.66294	386.51854	-23.22108	1608.09690	308.66552	-81.24879	1543.52733	325.99393	47.99022	1538.48361	273.10981	-9.68793	1566.04928	233.10963	-180.92463	1396.41059	217.27935	167.79099	1389.76886	320.90028	-140.87452	1093.13835	311.61185	-80.99910	1100.27946	296.38082	142.22284	1079.70508	287.39202	81.99786	1083.25067	370.93795	-97.47858	873.06248	414.08420	-85.24382	887.39463	294.78281	-119.45121	1089.99227	334.18373	112.90936	854.78525	375.03285	92.03536	865.42200	271.61167	124.89443	1076.70882	520.50165	-112.65967	767.69374	440.70105	-108.11533	788.01842	404.24646	-88.38990	843.64912	470.01453	196.60510	774.28552	393.16027	170.98701	789.71630	363.74690	120.59978	827.26953	164.84466	-144.81961	901.27734	159.80095	-135.43130	520.30189	148.51500	-62.72187	516.55656	194.45778	-90.18766	520.80127	82.89674	129.28895	905.17249	86.19264	127.79082	524.04723	142.02309	79.95041	519.05345	142.87203	133.38385	524.34686	142.17290	-160.79970	95.68082	144.02060	-98.17771	90.63710	219.62643	-100.22516	483.14817	80.79935	181.72364	101.82317	88.73946	119.75083	94.83187	177.42899	118.95183	484.59637	104.22018	-124.94437	-0.14981	251.73643	-115.80575	0.29963	241.14962	-181.67370	1.39826	265.26957	-150.86208	1.04869	143.27154	-131.13665	4.34459	341.17502	-163.09684	0.74907	43.74551	149.91326	5.74285	189.06450	123.09667	3.64546	186.46773	189.76362	4.14484	206.74247	156.25536	3.69540	83.34618	151.46133	9.53812	283.49687	159.25163	1.74782 
